HIERARCHY
ROOT Pelvis
{
	OFFSET 0.000000 0.000000 0.000000
	CHANNELS 6 Xposition Yposition Zposition Xrotation Yrotation Zrotation
	JOINT LeftUpLeg_virtual
	{
		OFFSET 0.000000 0.000000 0.000000
		CHANNELS 3 Xrotation Yrotation Zrotation
		JOINT LeftUpLeg
		{
			OFFSET 18.735201 -5.666702 -4.541200
			CHANNELS 3 Xrotation Yrotation Zrotation
			JOINT LeftLeg
			{
				OFFSET -0.021200 -31.938179 0.493100
				CHANNELS 3 Xrotation Yrotation Zrotation
				JOINT LeftFoot
				{
					OFFSET 0.021200 -31.938179 -4.336299
					CHANNELS 3 Xrotation Yrotation Zrotation
					JOINT LeftToeBase
					{
						OFFSET 0.943001 -26.722000 15.023500
						CHANNELS 3 Xrotation Yrotation Zrotation
						End Site
						{
							OFFSET 0 0 0
						}
					}
				}
			}
		}
	}
	JOINT RightUpLeg_virtual
	{
		OFFSET 0.000000 0.000000 0.000000
		CHANNELS 3 Xrotation Yrotation Zrotation
		JOINT RightUpLeg
		{
			OFFSET -18.735201 -5.666702 -4.541200
			CHANNELS 3 Xrotation Yrotation Zrotation
			JOINT RightLeg
			{
				OFFSET 0.018946 -31.938133 0.493100
				CHANNELS 3 Xrotation Yrotation Zrotation
				JOINT RightFoot
				{
					OFFSET -0.018946 -31.938126 -4.336299
					CHANNELS 3 Xrotation Yrotation Zrotation
					JOINT RightToeBase
					{
						OFFSET -0.943001 -26.722004 15.023500
						CHANNELS 3 Xrotation Yrotation Zrotation
						End Site
						{
							OFFSET 0 0 0
						}
					}
				}
			}
		}
	}
	JOINT Hips_virtual
	{
		OFFSET 0.000000 0.000000 0.000000
		CHANNELS 3 Xrotation Yrotation Zrotation
		JOINT Hips
		{
			OFFSET -0.000000 -0.000000 -0.000000
			CHANNELS 3 Xrotation Yrotation Zrotation
			JOINT Spine
			{
				OFFSET 0.000000 10.199997 -0.299500
				CHANNELS 3 Xrotation Yrotation Zrotation
				JOINT Spine1
				{
					OFFSET 0.000000 11.900002 -1.516600
					CHANNELS 3 Xrotation Yrotation Zrotation
					JOINT Spine2
					{
						OFFSET 0.000000 13.600006 -2.842500
						CHANNELS 3 Xrotation Yrotation Zrotation
						JOINT Neck_virtual
						{
							OFFSET 0.000000 0.000000 0.000000
							CHANNELS 3 Xrotation Yrotation Zrotation
							JOINT Neck
							{
								OFFSET 0.000000 9.624100 -2.890100
								CHANNELS 3 Xrotation Yrotation Zrotation
								JOINT Head
								{
									OFFSET 0.000000 14.068802 -1.351900
									CHANNELS 3 Xrotation Yrotation Zrotation
									End Site
									{
										OFFSET 0 0 0
									}
								}
							}
						}
						JOINT LeftShoulder_virtual
						{
							OFFSET 0.000000 0.000000 0.000000
							CHANNELS 3 Xrotation Yrotation Zrotation
							JOINT LeftShoulder
							{
								OFFSET 15.263000 10.923401 -0.547700
								CHANNELS 3 Xrotation Yrotation Zrotation
								JOINT LeftArm
								{
									OFFSET 25.438599 -2.830597 -13.032500
									CHANNELS 3 Xrotation Yrotation Zrotation
									JOINT LeftForeArm
									{
										OFFSET 29.960503 0.000000 0.000000
										CHANNELS 3 Xrotation Yrotation Zrotation
										JOINT LeftHand
										{
											OFFSET 27.849251 0.000000 0.000000
											CHANNELS 3 Xrotation Yrotation Zrotation
											End Site
											{
												OFFSET 0 0 0
											}
										}
									}
								}
							}
						}
						JOINT RightShoulder_virtual
						{
							OFFSET 0.000000 0.000000 0.000000
							CHANNELS 3 Xrotation Yrotation Zrotation
							JOINT RightShoulder
							{
								OFFSET -15.263000 10.923401 -0.547700
								CHANNELS 3 Xrotation Yrotation Zrotation
								JOINT RightArm
								{
									OFFSET -25.438599 -2.830597 -13.032500
									CHANNELS 3 Xrotation Yrotation Zrotation
									JOINT RightForeArm
									{
										OFFSET -29.960503 0.000000 0.000000
										CHANNELS 3 Xrotation Yrotation Zrotation
										JOINT RightHand
										{
											OFFSET -27.849251 0.000000 0.000000
											CHANNELS 3 Xrotation Yrotation Zrotation
											End Site
											{
												OFFSET 0 0 0
											}
										}
									}
								}
							}
						}
					}
				}
			}
		}
	}
}
MOTION
Frames: 4
Frame Time: 0.03333333
-1.135462 93.037659 1.807332 0.000000 0.000000 0.000000 7.444823 -16.829977 -0.724368 -31.848322 7.311673 14.373921 32.963548 4.529267 -1.726391 -14.276170 5.554930 -5.115483 0.000000 0.000000 0.000000 10.361942 -12.129043 1.968982 -16.991982 -9.352600 -14.388912 30.837140 5.316545 -1.315087 -17.885530 1.914124 12.147145 0.000000 0.000000 0.000000 -1.037111 -19.911620 0.858408 5.750192 -3.971980 -1.945894 8.396608 -1.489828 0.451264 2.138689 -0.474936 0.550400 0.000000 0.000000 0.000000 -0.602930 2.225818 0.204710 -1.587322 2.543842 -0.652645 0.000000 0.000000 0.000000 0.689253 -1.213627 1.893309 1.013341 -7.510841 0.346621 -39.072784 -14.032572 -39.282078 -8.637754 -56.047607 -3.754792 0.000000 0.000000 0.000000 2.461168 -0.909503 1.337976 3.370276 5.771962 8.717494 11.753339 -6.059282 54.431581 4.202148 34.602152 3.439474 0.000000 0.000000 0.000000 
-1.074784 93.009346 1.777585 0.000000 0.000000 0.000000 7.430967 -16.956810 -0.704369 -31.868023 7.270868 14.383557 32.995066 4.567197 -1.729067 -14.246873 5.596395 -5.107063 0.000000 0.000000 0.000000 10.321924 -12.156203 1.951332 -17.044421 -9.348482 -14.404995 30.910605 5.353978 -1.325342 -17.845399 1.962281 12.148526 0.000000 0.000000 0.000000 -1.065873 -20.090383 0.875160 5.811215 -3.765177 -1.952367 8.399487 -1.481405 0.418370 2.125456 -0.435955 0.564868 0.000000 0.000000 0.000000 -0.647109 2.206132 0.189930 -1.594724 2.566434 -0.685056 0.000000 0.000000 0.000000 0.663070 -1.236043 1.859607 1.016550 -7.486794 0.236437 -39.352152 -14.074392 -39.169280 -8.698892 -55.971737 -3.901073 0.000000 0.000000 0.000000 2.385533 -0.884499 1.323843 3.414302 5.843357 8.546536 11.781614 -6.267745 54.718298 4.055862 34.757187 3.651639 0.000000 0.000000 0.000000 
-0.957076 92.947701 1.720840 0.000000 0.000000 0.000000 7.396001 -17.190842 -0.669107 -31.916231 7.193406 14.401237 33.063908 4.637845 -1.732466 -14.184510 5.672632 -5.088464 0.000000 0.000000 0.000000 10.244280 -12.207076 1.914343 -17.148701 -9.339617 -14.440099 31.057710 5.430831 -1.335561 -17.764385 2.054381 12.171730 0.000000 0.000000 0.000000 -1.136970 -20.433689 0.901390 5.932647 -3.384726 -1.956282 8.394442 -1.456730 0.358176 2.097718 -0.363604 0.588387 0.000000 0.000000 0.000000 -0.733661 2.168824 0.153277 -1.607926 2.606788 -0.749178 0.000000 0.000000 0.000000 0.614183 -1.277225 1.790975 1.016557 -7.447092 0.021251 -39.903113 -14.106883 -38.954703 -8.835665 -55.803650 -4.185386 0.000000 0.000000 0.000000 2.245856 -0.840623 1.287714 3.498841 5.961927 8.191128 11.827687 -6.663579 55.279624 3.777779 35.049894 4.065825 0.000000 0.000000 0.000000 
-0.788852 92.843300 1.644768 0.000000 0.000000 0.000000 7.328498 -17.502645 -0.626509 -32.007393 7.085777 14.424016 33.180110 4.730337 -1.734282 -14.082930 5.770793 -5.059492 0.000000 0.000000 0.000000 10.133443 -12.276535 1.853563 -17.303360 -9.324894 -14.501229 31.280692 5.551983 -1.330697 -17.640268 2.186182 12.248578 0.000000 0.000000 0.000000 -1.269381 -20.914990 0.925474 6.111398 -2.887898 -1.947060 8.369812 -1.404738 0.279867 2.054814 -0.268003 0.612500 0.000000 0.000000 0.000000 -0.857427 2.117659 0.083017 -1.624068 2.656921 -0.843672 0.000000 0.000000 0.000000 0.548103 -1.330989 1.686412 1.003361 -7.405204 -0.288697 -40.712268 -14.050748 -38.664263 -9.075192 -55.523783 -4.596875 0.000000 0.000000 0.000000 2.062430 -0.788129 1.216370 3.616930 6.087007 7.629038 11.875128 -7.209242 56.090422 3.392581 35.455095 4.662789 0.000000 0.000000 0.000000 
